HIERARCHY
ROOT Hips
{
  OFFSET 0 0 0
  CHANNELS 6 Xposition Yposition Zposition Zrotation Yrotation Xrotation
  JOINT LeftThigh
  {
    OFFSET 8.409438 0 -5.917753
    CHANNELS 3 Zrotation Yrotation Xrotation
    JOINT LeftLeg
    {
      OFFSET 0 0 -42.358652
      CHANNELS 3 Zrotation Yrotation Xrotation
      JOINT LeftFoot
      {
        OFFSET 0 0 -39.357303
        CHANNELS 3 Zrotation Yrotation Xrotation
      }
    }
  }
  JOINT RightThigh
  {
    OFFSET -8.409438 0 -5.917753
    CHANNELS 3 Zrotation Yrotation Xrotation
    JOINT RightLeg
    {
      OFFSET 0 0 -42.358652
      CHANNELS 3 Zrotation Yrotation Xrotation
      JOINT RightFoot
      {
        OFFSET 0 0 -39.357303
        CHANNELS 3 Zrotation Yrotation Xrotation
      }
    }
  }
  JOINT SpineLow
  {
    OFFSET 0 0 4.719101
    CHANNELS 3 Zrotation Yrotation Xrotation
    JOINT SpineMid
    {
      OFFSET 0 0 12.899191
      CHANNELS 3 Zrotation Yrotation Xrotation
      JOINT Chest
      {
        OFFSET 0 0 12.899191
        CHANNELS 3 Zrotation Yrotation Xrotation
        JOINT LeftShoulder
        {
          OFFSET 7.550562 1.41573 9.438202
          CHANNELS 3 Zrotation Yrotation Xrotation
          JOINT LeftArm
          {
            OFFSET 9.155056 0 4.247191
            CHANNELS 3 Zrotation Yrotation Xrotation
            JOINT LeftForearm
            {
              OFFSET 0 0 25.771955
              CHANNELS 3 Zrotation Yrotation Xrotation
              JOINT LeftHand
              {
                OFFSET 0 0 25.197169
                CHANNELS 3 Zrotation Yrotation Xrotation
              }
            }
          }
        }
        JOINT RightShoulder
        {
          OFFSET -7.550562 1.41573 9.438202
          CHANNELS 3 Zrotation Yrotation Xrotation
          JOINT RightArm
          {
            OFFSET -9.155056 0 4.247191
            CHANNELS 3 Zrotation Yrotation Xrotation
            JOINT RightForearm
            {
              OFFSET 0 0 -25.771955
              CHANNELS 3 Zrotation Yrotation Xrotation
              JOINT RightHand
              {
                OFFSET 0 0 -25.197169
                CHANNELS 3 Zrotation Yrotation Xrotation
              }
            }
          }
        }
        JOINT Neck
        {
          OFFSET 0 0 15.101124
          CHANNELS 3 Zrotation Yrotation Xrotation
          JOINT Head
          {
            OFFSET 0 0 11.325843
            CHANNELS 3 Zrotation Yrotation Xrotation
            End Site
            {
              OFFSET 0 0 14.157303
            }
          }
        }
      }
    }
  }
}
MOTION
Frames: 8
Frame Time: 0.0
0.0  89.887642  0.0  0.573666  -13.553668  -96.97223  5.640832  -19.852656  -7.534639  -2.31123  19.324114  37.826397  -1.686452  0.484907  -0.593822  -23.569388  15.618896  -17.699199  0.694113  6.20243  31.099229  9.45934  2.773121  -0.898684  0.472257  0.197525  1.667034  1.303796  0.507057  4.560411  1.303796  0.507057  4.560411  -17.391055  22.124334  2.487772  172.449698  59.331038  -153.078678  -4.059597  -6.248445  21.040806  100.773161  -3.903241  -7.339453  -17.024148  0.931771  19.944101  47.480911  11.138112  42.944501  29.882756  -29.033249  -107.558199  64.09991  6.503823  -26.180568  -8.040765  -0.862869  -0.697682  -6.031454  -0.638104  -0.534716  
0.0  89.887642  0.0  0.593637  -13.533338  -96.898001  5.650349  -19.826938  -7.602597  -2.97772  19.506867  37.296842  -1.267374  0.635624  -0.406668  -24.090147  15.430725  -17.882741  1.277456  6.116173  30.986117  9.492881  2.760063  -0.82012  0.472865  0.201269  1.642889  1.305535  0.517722  4.494496  1.305535  0.517722  4.494496  -17.261422  22.196061  2.529368  173.048344  59.301897  -152.519985  -4.136781  -6.346802  21.15191  100.858273  -4.066485  -7.538943  -17.168308  0.906238  19.919706  47.406508  11.16946  42.891541  30.095376  -29.190008  -107.564711  64.069836  6.405396  -26.08701  -8.010431  -0.832418  -0.507884  -6.008414  -0.617782  -0.391898  
0.0  89.887642  0.0  0.577148  -13.588486  -96.844468  5.351374  -19.847521  -7.584669  -2.871153  19.548642  37.196787  -1.1148  0.653842  -0.349806  -24.113215  15.296579  -17.930939  1.508212  6.097427  30.882046  9.489111  2.767671  -0.744534  0.487386  0.200531  1.6268  1.345037  0.515047  4.450614  1.345037  0.515047  4.450614  -17.24315  22.208518  2.522425  173.793312  59.31088  -151.816829  -4.270752  -6.417424  21.26937  100.933331  -4.141725  -7.586568  -17.23284  0.811486  19.882421  47.413831  11.234268  42.898225  30.308646  -29.374675  -107.534161  64.013992  6.340487  -25.996329  -8.06987  -0.788186  -0.405771  -6.052834  -0.585903  -0.314797  
0.0  89.887642  0.0  0.561836  -13.629998  -96.773075  4.860495  -19.819531  -7.533229  -2.554249  19.53614  37.137849  -0.98644  0.660631  -0.281937  -24.07257  15.135646  -18.011751  1.854577  6.106391  30.870095  9.329886  2.746586  -0.706018  0.504012  0.198073  1.609256  1.390166  0.507584  4.402728  1.390166  0.507584  4.402728  -17.265994  22.239071  2.48202  174.2724  59.372872  -151.272824  -4.370744  -6.45635  21.385401  100.999093  -4.048616  -7.490077  -17.325812  0.716677  19.823927  47.396172  11.298736  42.834882  30.580907  -29.508505  -107.387053  63.99212  6.337939  -25.886523  -8.069203  -0.720997  -0.313168  -6.052194  -0.536724  -0.244444  
0.0  89.887642  0.0  0.550875  -13.768599  -96.703945  4.442617  -19.786215  -7.468405  -2.237461  19.446011  37.058281  -0.865411  0.665426  -0.191944  -23.646571  15.083041  -18.066868  1.627484  6.169808  30.868714  9.3344  2.777998  -0.639373  0.535941  0.192384  1.589804  1.476882  0.490353  4.349663  1.476882  0.490353  4.349662  -17.301464  22.242772  2.445636  174.593402  59.399012  -150.936897  -4.417036  -6.454515  21.416988  101.119316  -4.056109  -7.246595  -17.367314  0.597844  19.788756  47.428524  11.384389  42.854078  30.744623  -29.63899  -107.296884  64.016439  6.308105  -25.825198  -8.111504  -0.645099  -0.275662  -6.083856  -0.480266  -0.215352  
0.0  89.887642  0.0  0.601521  -13.993636  -96.693143  4.402529  -19.730296  -7.243255  -2.101814  19.41463  36.857541  -0.84938  0.590088  -0.144033  -22.939676  15.16593  -18.091947  1.351488  6.224214  30.918226  9.28135  2.750904  -0.579986  0.575844  0.196144  1.575557  1.586047  0.498341  4.311093  1.586047  0.498341  4.311094  -17.350268  22.220086  2.428611  174.606383  59.433652  -150.841496  -4.397206  -6.404344  21.445241  100.814147  -4.141755  -6.878888  -17.383585  0.498997  19.774207  47.741127  11.460438  43.017598  30.841071  -29.761573  -107.244797  64.052841  6.400642  -25.81761  -8.057491  -0.556767  -0.227222  -6.043279  -0.414665  -0.177793  
0.0  89.887642  0.0  0.665513  -14.162195  -96.65688  4.2825  -19.584818  -7.170112  -2.014932  19.275198  36.696075  -0.765495  0.595233  -0.038942  -22.319179  15.282663  -18.182929  0.908366  6.261131  30.984689  9.283237  2.750045  -0.526484  0.602923  0.198664  1.55575  1.660052  0.503959  4.257214  1.660052  0.503959  4.257214  -17.347025  22.222632  2.45293  174.453481  59.440066  -150.879049  -4.369654  -6.39696  21.462677  100.781747  -4.115099  -6.668357  -17.3384  0.446318  19.81779  47.773689  11.505819  42.988323  30.876727  -29.824042  -107.143069  64.109296  6.390926  -25.805647  -8.030951  -0.464567  -0.21764  -6.023347  -0.345636  -0.169369  
0.0  89.887642  0.0  0.738886  -14.272702  -96.610625  4.299844  -19.434344  -7.118093  -2.101042  19.141186  36.484952  -0.738996  0.59787  0.042404  -21.744751  15.441489  -18.287313  0.541799  6.268252  31.059601  9.231279  2.711304  -0.483764  0.613854  0.204438  1.539106  1.690166  0.519455  4.21195  1.690166  0.519455  4.21195  -17.377863  22.17102  2.430132  174.225122  59.385962  -150.996363  -4.506407  -6.431597  21.389041  100.486997  -3.913849  -6.454675  -17.169489  0.401433  19.891865  47.860398  11.577854  42.993458  30.905473  -29.884823  -107.061405  64.193382  6.396013  -25.720389  -7.931672  -0.370069  -0.215532  -5.948865  -0.274809  -0.166485  
